<svg xmlns="http://www.w3.org/2000/svg" width="256" height="256" viewBox="0 0 100 100"><rect width="100" height="100" rx="20" fill="#2f4f4f"></rect><path fill="#fff" d="M20.75 63.62L8.25 50.69L8.25 64.85Q7.96 64.95 7.47 65.07Q6.98 65.19 6.39 65.19L6.39 65.19Q4.23 65.19 4.23 63.38L4.23 63.38L4.23 35.20Q4.48 35.10 4.99 34.98Q5.51 34.86 6.10 34.86L6.10 34.86Q8.25 34.86 8.25 36.67L8.25 36.67L8.25 48.87L21.73 34.91Q23.00 34.96 23.64 35.55Q24.28 36.13 24.28 36.92L24.28 36.92Q24.28 37.55 23.93 38.09Q23.59 38.63 22.95 39.27L22.95 39.27L12.37 49.66Q16.83 54.02 20.09 57.42Q23.34 60.83 25.70 62.94L25.70 62.94Q25.60 64.01 25.03 64.63Q24.47 65.24 23.59 65.24L23.59 65.24Q22.76 65.24 22.09 64.77Q21.43 64.31 20.75 63.62L20.75 63.62ZM35.99 53.63L35.99 64.80Q35.69 64.90 35.20 65.02Q34.71 65.14 34.12 65.14L34.12 65.14Q31.97 65.14 31.97 63.33L31.97 63.33L31.97 37.26Q31.97 36.48 32.36 36.06Q32.75 35.64 33.59 35.40L33.59 35.40Q35.01 34.96 37.09 34.76Q39.17 34.56 41.13 34.56L41.13 34.56Q47.31 34.56 50.32 37.04Q53.33 39.51 53.33 44.07L53.33 44.07Q53.33 47.45 51.59 49.76Q49.85 52.06 46.33 53.04L46.33 53.04Q47.55 54.61 48.78 56.17Q50 57.74 51.10 59.14Q52.21 60.54 53.06 61.66Q53.92 62.79 54.41 63.43L54.41 63.43Q54.21 64.26 53.55 64.75Q52.89 65.24 52.21 65.24L52.21 65.24Q51.37 65.24 50.83 64.85Q50.29 64.45 49.71 63.62L49.71 63.62L42.55 53.63L35.99 53.63ZM35.94 50.29L41.57 50.29Q45.20 50.29 47.26 48.73Q49.31 47.16 49.31 44.07L49.31 44.07Q49.31 40.98 47.16 39.44Q45.00 37.90 40.98 37.90L40.98 37.90Q39.66 37.90 38.31 38.02Q36.97 38.14 35.94 38.34L35.94 38.34L35.94 50.29ZM64.85 64.80L64.85 64.80Q64.60 64.90 64.11 65.02Q63.62 65.14 63.03 65.14L63.03 65.14Q60.88 65.14 60.88 63.33L60.88 63.33L60.88 35.20Q61.12 35.10 61.64 34.98Q62.15 34.86 62.74 34.86L62.74 34.86Q64.85 34.86 64.85 36.67L64.85 36.67L64.85 64.80ZM94.59 42.60L94.59 42.60Q94.59 44.71 93.59 46.50Q92.58 48.28 90.23 49.27L90.23 49.27Q93.02 50.20 94.39 52.18Q95.77 54.16 95.77 56.66L95.77 56.66Q95.77 61.12 92.56 63.28Q89.35 65.44 83.42 65.44L83.42 65.44Q81.36 65.44 79.42 65.26Q77.49 65.09 75.73 64.60L75.73 64.60Q73.67 64.01 73.67 62.35L73.67 62.35L73.67 37.26Q73.67 35.84 75.28 35.40L75.28 35.40Q76.95 34.91 78.81 34.74Q80.67 34.56 82.88 34.56L82.88 34.56Q88.42 34.56 91.50 36.52Q94.59 38.48 94.59 42.60ZM84.25 51.03L77.59 51.03L77.59 61.61Q78.76 61.86 80.31 62.01Q81.85 62.15 83.42 62.15L83.42 62.15Q87.49 62.15 89.59 60.80Q91.70 59.46 91.70 56.57L91.70 56.57Q91.70 54.02 89.81 52.52Q87.93 51.03 84.25 51.03L84.25 51.03ZM77.59 38.29L77.59 47.80L84.25 47.80Q87.34 47.80 88.93 46.42Q90.52 45.05 90.52 42.70L90.52 42.70Q90.52 37.85 82.88 37.85L82.88 37.85Q81.16 37.85 79.91 37.97Q78.67 38.09 77.59 38.29L77.59 38.29Z"></path></svg>